<svg xmlns="http://www.w3.org/2000/svg" width="128.09" height="35" viewBox="0 0 128.09 35"><rect class="svg__rect" x="0" y="0" width="71.03" height="35" fill="#31C4F3"/><rect class="svg__rect" x="69.03" y="0" width="59.06" height="35" fill="#8638D5"/><path class="svg__text" d="M17.33 22L14.22 22L14.22 13.47L17.14 13.47Q18.59 13.47 19.34 14.05Q20.10 14.63 20.10 15.78L20.10 15.78Q20.10 16.36 19.78 16.83Q19.47 17.30 18.86 17.56L18.86 17.56Q19.55 17.75 19.93 18.26Q20.31 18.78 20.31 19.51L20.31 19.51Q20.31 20.71 19.53 21.36Q18.76 22 17.33 22L17.33 22ZM15.70 18.15L15.70 20.82L17.35 20.82Q18.04 20.82 18.44 20.47Q18.83 20.13 18.83 19.51L18.83 19.51Q18.83 18.18 17.47 18.15L17.47 18.15L15.70 18.15ZM15.70 14.66L15.70 17.06L17.15 17.06Q17.84 17.06 18.23 16.75Q18.62 16.43 18.62 15.86L18.62 15.86Q18.62 15.23 18.26 14.95Q17.90 14.66 17.14 14.66L17.14 14.66L15.70 14.66ZM24.64 19.16L24.64 19.16L24.64 13.47L26.12 13.47L26.12 19.18Q26.12 20.03 26.55 20.48Q26.98 20.93 27.83 20.93L27.83 20.93Q29.54 20.93 29.54 19.13L29.54 19.13L29.54 13.47L31.02 13.47L31.02 19.17Q31.02 20.53 30.15 21.32Q29.28 22.12 27.83 22.12L27.83 22.12Q26.36 22.12 25.50 21.33Q24.64 20.55 24.64 19.16ZM37.15 22L35.67 22L35.67 13.47L37.15 13.47L37.15 22ZM47.32 22L41.96 22L41.96 13.47L43.44 13.47L43.44 20.82L47.32 20.82L47.32 22ZM53.12 14.66L50.49 14.66L50.49 13.47L57.25 13.47L57.25 14.66L54.59 14.66L54.59 22L53.12 22L53.12 14.66Z" fill="#FFFFFF"/><path class="svg__text" d="M85.60 22L83.22 22L83.22 13.60L87.06 13.60Q88.20 13.60 89.04 13.98Q89.88 14.35 90.34 15.06Q90.79 15.76 90.79 16.71L90.79 16.71Q90.79 17.66 90.34 18.35Q89.88 19.05 89.04 19.42Q88.20 19.80 87.06 19.80L87.06 19.80L85.60 19.80L85.60 22ZM85.60 15.47L85.60 17.93L86.92 17.93Q87.65 17.93 88.02 17.61Q88.39 17.29 88.39 16.71L88.39 16.71Q88.39 16.12 88.02 15.80Q87.65 15.47 86.92 15.47L86.92 15.47L85.60 15.47ZM97.92 22L95.55 22L95.55 13.60L97.92 13.60L97.92 16.76L101.17 16.76L101.17 13.60L103.54 13.60L103.54 22L101.17 22L101.17 18.72L97.92 18.72L97.92 22ZM111.08 22L108.70 22L108.70 13.60L112.54 13.60Q113.68 13.60 114.52 13.98Q115.36 14.35 115.82 15.06Q116.28 15.76 116.28 16.71L116.28 16.71Q116.28 17.66 115.82 18.35Q115.36 19.05 114.52 19.42Q113.68 19.80 112.54 19.80L112.54 19.80L111.08 19.80L111.08 22ZM111.08 15.47L111.08 17.93L112.40 17.93Q113.13 17.93 113.50 17.61Q113.87 17.29 113.87 16.71L113.87 16.71Q113.87 16.12 113.50 15.80Q113.13 15.47 112.40 15.47L112.40 15.47L111.08 15.47Z" fill="#FFFFFF" x="82.03"/></svg>