<svg width="62" height="45" viewBox="0 0 62 45" fill="none" xmlns="http://www.w3.org/2000/svg">
<path d="M14.8396 0H14.891C15.0415 0.111085 15.2341 0.0622642 15.4075 0.0714623C19.0466 0.0693396 22.6857 0.0714623 26.3248 0.0707547C26.3248 1.43844 26.3248 2.80684 26.3248 4.17453C23.0688 4.17453 19.8135 4.17524 16.5575 4.17453C12.9776 7.72429 9.39702 11.2741 5.81785 14.8245C12.5353 21.4861 19.2521 28.1476 25.9681 34.8092C25.9674 36.745 25.9695 38.6802 25.9674 40.616C17.4414 32.1587 8.91476 23.7035 0.388808 15.2469C0.249693 15.1111 0.0813286 14.9873 0.0442314 14.7835L0 14.862V14.6986L0.00142682 14.7785C4.96961 9.85967 9.92494 4.92877 14.8974 0.0148585L14.8396 0Z" fill="white"/>
<path d="M46.0811 0H46.1603C51.1321 4.92241 56.0924 9.85684 61.0677 14.7757V14.7785C60.7966 15.0814 60.4556 15.3241 60.2466 15.6771C51.8647 23.9915 43.48 32.3038 35.0996 40.6196C34.999 40.5241 35.0347 40.3804 35.0261 40.2601C35.0304 38.4665 35.0276 36.6729 35.0276 34.8792C41.7679 28.1936 48.5081 21.5087 55.2491 14.8238C51.67 11.2733 48.0901 7.72429 44.5102 4.17453C41.2542 4.17453 37.9989 4.17453 34.7429 4.17453C34.7429 2.80684 34.7429 1.43844 34.7429 0.0707547C38.554 0.067217 42.3657 0.0778302 46.1767 0.0658019L46.0811 0Z" fill="white"/>
<path d="M28.5363 0.0708008C29.8682 0.0708008 31.1994 0.0708008 32.5314 0.0708008C32.5314 3.79745 32.5314 7.5234 32.5314 11.25C28.8402 11.2479 25.1483 11.2543 21.4571 11.2472C19.914 12.7656 18.3823 14.2967 16.8421 15.8187C19.9319 18.876 23.0102 21.9446 26.105 24.997C26.1143 26.8578 26.115 28.7194 26.1043 30.5802C24.0611 28.5934 22.0542 26.5691 20.0246 24.5675C17.8829 22.4477 15.7506 20.3194 13.6032 18.2066C12.8227 17.3845 11.9945 16.6083 11.2004 15.7996C14.0648 12.9666 16.9263 10.13 19.782 7.28778C22.6999 7.28778 25.6184 7.28778 28.5363 7.28778C28.5363 4.88212 28.5363 2.47646 28.5363 0.0708008Z" fill="url(#paint0_linear_71_379)"/>
<path d="M34.8143 7.28773C36.9588 7.28985 39.104 7.28348 41.2478 7.29056C41.3598 7.27923 41.4326 7.37334 41.5068 7.43985C44.3133 10.2347 47.1363 13.0125 49.9379 15.8115C49.0183 16.7031 48.1229 17.6186 47.2062 18.5123C47.0279 18.6424 46.8595 18.7847 46.7118 18.9481C42.004 23.6172 37.2955 28.2863 32.5885 32.9554C32.5007 33.0276 32.5414 33.1535 32.5293 33.2519C32.5342 36.5073 32.5293 39.7627 32.5314 43.0182C31.8715 43.6804 31.1966 44.33 30.5445 45H30.536C29.8668 44.342 29.2019 43.6783 28.5356 43.0167C28.5427 39.1804 28.5242 35.3427 28.5449 31.5071L28.6383 31.4491C28.6119 31.4299 28.5598 31.3924 28.5334 31.3733C33.7763 26.1778 39.0163 20.9795 44.2563 15.7804C42.7324 14.2691 41.2114 12.7542 39.6833 11.2472C38.0603 11.2535 36.4373 11.2486 34.8143 11.25C34.8143 9.929 34.8143 8.60872 34.8143 7.28773Z" fill="url(#paint1_linear_71_379)"/>
<defs>
<linearGradient id="paint0_linear_71_379" x1="21.8659" y1="0.0708008" x2="21.8659" y2="30.5802" gradientUnits="userSpaceOnUse">
<stop stop-color="#77DBFF"/>
<stop offset="1" stop-color="#29B6E9"/>
</linearGradient>
<linearGradient id="paint1_linear_71_379" x1="39.2357" y1="7.28711" x2="39.2357" y2="45" gradientUnits="userSpaceOnUse">
<stop stop-color="#77DBFF"/>
<stop offset="1" stop-color="#29B6E9"/>
</linearGradient>
</defs>
</svg>
